HIERARCHY
ROOT hip
{
  OFFSET 0 0 0
  CHANNELS 6 Xposition Yposition Zposition Zrotation Yrotation Xrotation
  JOINT abdomen
  {
    OFFSET 0 20.6881 -0.73152
    CHANNELS 3 Zrotation Xrotation Yrotation
    JOINT chest
    {
      OFFSET 0 11.7043 -0.48768
      CHANNELS 3 Zrotation Xrotation Yrotation
      JOINT neck
      {
        OFFSET 0 22.1894 -2.19456
        CHANNELS 3 Zrotation Xrotation Yrotation
        JOINT head
        {
          OFFSET -0.24384 7.07133 1.2192
          CHANNELS 3 Zrotation Xrotation Yrotation
          JOINT leftEye
          {
            OFFSET 4.14528 8.04674 8.04672
            CHANNELS 3 Zrotation Xrotation Yrotation
            End Site
            {
              OFFSET 1 0 0
            }
          }
          JOINT rightEye
          {
            OFFSET -3.6576 8.04674 8.04672
            CHANNELS 3 Zrotation Xrotation Yrotation
            End Site
            {
              OFFSET 1 0 0
            }
          }
        }
      }
      JOINT rCollar
      {
        OFFSET -2.68224 19.2634 -4.8768
        CHANNELS 3 Zrotation Xrotation Yrotation
        JOINT rShldr
        {
          OFFSET -8.77824 -1.95073 1.46304
          CHANNELS 3 Zrotation Xrotation Yrotation
          JOINT rForeArm
          {
            OFFSET -28.1742 -1.7115 0.48768
            CHANNELS 3 Zrotation Xrotation Yrotation
            JOINT rHand
            {
              OFFSET -22.5879 0.773209 7.07136
              CHANNELS 3 Zrotation Xrotation Yrotation
              JOINT rThumb1
              {
                OFFSET -1.2192 -0.487915 3.41376
                CHANNELS 3 Zrotation Xrotation Yrotation
                JOINT rThumb2
                {
                  OFFSET -3.37035 -0.52449 3.41376
                  CHANNELS 3 Zrotation Xrotation Yrotation
                  End Site
                  {
                    OFFSET -1.78271 -1.18214 1.43049
                  }
                }
              }
              JOINT rIndex1
              {
                OFFSET -7.75947 0.938293 5.60832
                CHANNELS 3 Zrotation Xrotation Yrotation
                JOINT rIndex2
                {
                  OFFSET -2.54057 -0.884171 1.56538
                  CHANNELS 3 Zrotation Xrotation Yrotation
                  End Site
                  {
                    OFFSET -1.62519 -0.234802 1.16502
                  }
                }
              }
              JOINT rMid1
              {
                OFFSET -8.24714 1.18213 3.41376
                CHANNELS 3 Zrotation Xrotation Yrotation
                JOINT rMid2
                {
                  OFFSET -3.10165 -0.590103 1.0647
                  CHANNELS 3 Zrotation Xrotation Yrotation
                  End Site
                  {
                    OFFSET -2.48547 -0.328903 0.83742
                  }
                }
              }
              JOINT rRing1
              {
                OFFSET -8.82822 0.546677 1.51678
                CHANNELS 3 Zrotation Xrotation Yrotation
                JOINT rRing2
                {
                  OFFSET -2.60934 -0.819778 -0.0198488
                  CHANNELS 3 Zrotation Xrotation Yrotation
                  End Site
                  {
                    OFFSET -2.33842 -0.294052 0.168128
                  }
                }
              }
              JOINT rPinky1
              {
                OFFSET -8.27202 -0.0477905 -0.4584
                CHANNELS 3 Zrotation Xrotation Yrotation
                JOINT rPinky2
                {
                  OFFSET -1.82734 -0.647385 -0.700984
                  CHANNELS 3 Zrotation Xrotation Yrotation
                  End Site
                  {
                    OFFSET -1.69225 -0.51767 -0.607171
                  }
                }
              }
            }
          }
        }
      }
      JOINT lCollar
      {
        OFFSET 2.68224 19.2634 -4.8768
        CHANNELS 3 Zrotation Xrotation Yrotation
        JOINT lShldr
        {
          OFFSET 8.77824 -1.95073 1.46304
          CHANNELS 3 Zrotation Xrotation Yrotation
          JOINT lForeArm
          {
            OFFSET 28.1742 -1.7115 0.48768
            CHANNELS 3 Zrotation Xrotation Yrotation
            JOINT lHand
            {
              OFFSET 22.5879 0.773209 7.07136
              CHANNELS 3 Zrotation Xrotation Yrotation
              JOINT lThumb1
              {
                OFFSET 1.2192 -0.487915 3.41376
                CHANNELS 3 Zrotation Xrotation Yrotation
                JOINT lThumb2
                {
                  OFFSET 3.37035 -0.52449 3.41376
                  CHANNELS 3 Zrotation Xrotation Yrotation
                  End Site
                  {
                    OFFSET 1.78271 -1.18214 1.43049
                  }
                }
              }
              JOINT lIndex1
              {
                OFFSET 7.75947 0.938293 5.60832
                CHANNELS 3 Zrotation Xrotation Yrotation
                JOINT lIndex2
                {
                  OFFSET 2.54057 -0.884171 1.56538
                  CHANNELS 3 Zrotation Xrotation Yrotation
                  End Site
                  {
                    OFFSET 1.62519 -0.234802 1.16502
                  }
                }
              }
              JOINT lMid1
              {
                OFFSET 8.24714 1.18213 3.41376
                CHANNELS 3 Zrotation Xrotation Yrotation
                JOINT lMid2
                {
                  OFFSET 3.10165 -0.590103 1.0647
                  CHANNELS 3 Zrotation Xrotation Yrotation
                  End Site
                  {
                    OFFSET 2.48547 -0.328903 0.83742
                  }
                }
              }
              JOINT lRing1
              {
                OFFSET 8.82822 0.546677 1.51678
                CHANNELS 3 Zrotation Xrotation Yrotation
                JOINT lRing2
                {
                  OFFSET 2.60934 -0.819778 -0.0198488
                  CHANNELS 3 Zrotation Xrotation Yrotation
                  End Site
                  {
                    OFFSET 2.33842 -0.294052 0.168128
                  }
                }
              }
              JOINT lPinky1
              {
                OFFSET 8.27202 -0.0477905 -0.4584
                CHANNELS 3 Zrotation Xrotation Yrotation
                JOINT lPinky2
                {
                  OFFSET 1.82734 -0.647385 -0.700984
                  CHANNELS 3 Zrotation Xrotation Yrotation
                  End Site
                  {
                    OFFSET 1.69225 -0.51767 -0.607171
                  }
                }
              }
            }
          }
        }
      }
    }
  }
  JOINT rButtock
  {
    OFFSET -8.77824 4.35084 1.2192
    CHANNELS 3 Zrotation Xrotation Yrotation
    JOINT rThigh
    {
      OFFSET 0 -1.70687 -2.19456
      CHANNELS 3 Zrotation Xrotation Yrotation
      JOINT rShin
      {
        OFFSET 0 -36.8199 0.73152
        CHANNELS 3 Zrotation Xrotation Yrotation
        JOINT rFoot
        {
          OFFSET 0.73152 -45.1104 -5.12064
          CHANNELS 3 Zrotation Xrotation Yrotation
          End Site
          {
            OFFSET -1.1221 -3.69964 12.103
          }
        }
      }
    }
  }
  JOINT lButtock
  {
    OFFSET 8.77824 4.35084 1.2192
    CHANNELS 3 Zrotation Xrotation Yrotation
    JOINT lThigh
    {
      OFFSET 0 -1.70687 -2.19456
      CHANNELS 3 Zrotation Xrotation Yrotation
      JOINT lShin
      {
        OFFSET 0 -36.8199 0.73152
        CHANNELS 3 Zrotation Xrotation Yrotation
        JOINT lFoot
        {
          OFFSET -0.73152 -45.1104 -5.12064
          CHANNELS 3 Zrotation Xrotation Yrotation
          End Site
          {
            OFFSET 1.1221 -3.69964 12.103
          }
        }
      }
    }
  }
}
MOTION
Frames:	4
Frame Time:	0.03333
-10.2424 50.6095 5.3716 -17.812868 29.297482 -5.271534 10.515049 9.884214 104.038316 -8.678995 -2.071383 -99.955481 8.736555 27.504299 81.770845 -39.197473 -5.529473 -72.244053 7.188492 -0.105726 -1.683049 3.716536 0.262378 8.073671 -13.493761 42.87736 17.15453 -101.171321 -10.813222 178.330463 179.067123 6.087789 -68.350955 -12.832067 -10.784277 -7.089404 -172.939722 -15.822786 87.463294 92.945398 -75.706439 43.487967 56.759606 -63.091215 28.877317 17.797657 4.120157 -23.261474 171.253209 -45.442752 149.448559 -12.393262 69.035391 -4.56423 5.447529 -13.825711 -0.158597 -178.570521 45.025627 175.361119 -126.755471 55.71197 -148.264229 3.780112 -14.970859 -41.970041 -0.414187 0.255623 -0.772961 127.699135 -16.42917 -148.476416 82.249639 -42.260826 115.725504 -28.760529 -34.083354 -22.891712 176.128044 3.067429 -93.303404 60.09447 -11.548615 -0.003632 22.391256 -10.373396 12.077339 -16.741448 35.880132 -21.494258 42.564292 50.6064 -28.936306 -89.758781 -70.794685 -61.052241 127.176526 -2.894632 -176.107074 11.746125 -70.286675 61.929685 80.365488 -49.396219 79.556386 26.971991 -34.307095 39.977104 -0.937663 -7.407035 -7.235307 -14.092309 17.560852 4.059836 0.842577 46.975188 147.522946 -16.3677 29.785814 -168.000461 135.599366 60.918602 32.214307 -123.307547 -25.55102 128.524297 91.444853 -50.914835 -17.81391 -99.564889 55.327746 10.132993
-10.5625 50.5721 5.3388 -17.835373 28.889244 -5.291899 10.548511 9.970928 104.431257 -8.724937 -2.022065 -100.17327 4.856797 38.796163 153.065238 -33.280005 41.171347 -128.087161 7.246738 -0.147052 -2.321896 2.580856 0.170285 7.548545 -148.382538 22.082756 154.455927 -8.904423 -8.387863 67.387059 -164.879557 -50.438989 -59.748758 -8.50274 -25.907085 -9.716522 -1.248985 6.429319 3.246627 9.564855 -42.406859 3.868099 -1.372526 -20.59491 5.294561 -4.868139 48.526473 13.877594 166.88549 -56.096521 148.281181 -80.191977 -79.441414 -105.517239 -139.762884 5.715758 174.47263 27.334221 20.732441 5.935214 50.946631 61.478678 12.416542 28.74938 46.063322 -40.07393 9.658962 34.680941 -12.032733 -12.859655 14.257422 -54.718512 7.735481 -55.538149 -25.898813 1.307929 49.78578 -1.202149 83.819777 42.794219 -34.543796 87.956489 -14.684022 -55.707054 10.34004 -47.592275 17.538522 89.79579 55.383977 -109.05354 167.193384 -3.875538 -142.177274 3.633171 0.219343 2.472944 125.981789 4.640837 -174.266324 115.586462 -35.81051 161.251284 125.700763 -24.689956 122.366688 168.063673 34.146312 129.003398 3.187852 -7.736369 -3.639317 -16.361803 16.842028 -97.826978 -36.09704 -11.046116 91.330255 90.298234 -40.410911 6.799756 162.550892 67.187606 18.829141 -134.297519 -15.669473 75.235723 88.340177 9.514957 -31.588622 -128.822796 28.231109 36.255433
-11.0088 50.656800000000004 5.3416 -18.367678 30.00287 -5.268065 13.803659 12.02721 -0.0 0.957419 -10.376252 4.47188 -12.632841 29.862377 -69.682997 46.276739 6.817423 81.670909 4.945936 -0.208176 -4.817363 0.889216 0.026654 3.433691 -7.740106 32.165154 10.268288 72.008728 8.338346 -9.24967 -176.414349 5.537362 32.648001 -164.253538 10.653682 136.406355 -179.42375 -23.401362 85.886841 -39.408829 11.689206 22.7017 -14.924308 -1.651264 9.162753 -11.36015 41.989203 23.29951 46.503129 -85.677924 35.536917 17.54548 0.499547 -21.498368 5.635764 -8.065414 1.615459 -27.332463 -56.810577 -29.221329 -137.775971 79.467845 -144.795247 4.474546 2.862908 -42.671675 -0.058701 -0.23191 -0.85483 -102.880902 -54.590902 -51.248302 -16.450548 66.507991 -24.350138 7.704137 65.8643 -2.448498 -99.781445 -54.475371 -57.38393 139.606213 14.9411 -116.454954 164.600879 14.234144 -120.148774 -174.288569 21.34016 -118.1661 162.314368 9.129043 -137.895645 -4.043472 -24.76932 0.623799 -19.464115 -0.058308 -4.150689 -163.122406 -55.064004 -166.327924 138.655003 -3.225106 134.636514 154.547523 3.396587 130.949846 -60.522715 35.388711 -58.653608 43.060776 32.181662 -25.654401 -50.095357 -2.261145 -84.321809 -177.002863 6.37576 -133.715372 37.613396 10.258662 18.47294 49.312787 -74.546957 -97.175553 -142.327641 -84.419194 -70.385048 -16.864356 89.485122 98.228104
-11.497 50.6174 5.3784 -18.338905 30.546049 -5.126784 13.943224 11.778473 0.0 0.736712 -10.241029 3.972645 7.028324 24.015975 57.370402 -30.414949 -20.168973 -50.677622 3.732147 -0.123179 -3.779383 -0.280544 -0.006732 2.749056 -79.752417 67.49759 83.567488 -109.57432 -13.283886 138.107038 -11.849017 -23.280115 -152.574251 -169.463802 -6.488974 141.108554 3.218314 5.519441 2.376354 -174.329436 -33.510151 98.11414 -17.687862 4.111836 11.30352 -157.142968 -31.478705 105.551338 96.264362 -86.433126 83.988395 7.135234 77.180988 -4.392031 6.19847 -14.584017 -0.741096 -173.543836 -26.445473 -176.907094 26.983621 -13.149454 -6.973469 179.502033 5.676971 -160.156955 28.668996 -85.95839 50.057976 -33.059869 -8.073643 30.917615 179.004394 -78.050794 -106.879412 -131.684031 -48.284557 -122.797506 178.141781 0.915312 -92.92924 -153.153812 -40.587892 -113.422289 95.844382 52.066199 -55.983235 -83.713849 -35.752934 -57.680295 88.427689 58.482391 -71.870968 165.520392 -5.9519 -135.175289 -19.73743 -11.612731 -1.080466 61.717026 58.643014 -46.67362 -2.065753 3.640189 0.75032 -17.967514 18.195618 -11.87032 16.571908 -7.814473 7.691988 -25.138929 20.320756 -126.503079 -45.197353 -20.133131 -107.885906 -165.90985 1.14104 -176.732593 -110.269437 60.068997 -35.852898 -167.955753 -4.877319 101.220955 85.430103 12.248022 -96.934241 61.283674 -5.064309 -11.587716
